<?xml version="1.0" standalone="no"?>
<!DOCTYPE svg PUBLIC "-//W3C//DTD SVG 20010904//EN"
 "http://www.w3.org/TR/2001/REC-SVG-20010904/DTD/svg10.dtd">
<svg version="1.0" xmlns="http://www.w3.org/2000/svg"
 width="1290.000000pt" height="1290.000000pt" viewBox="0 0 1290.000000 1290.000000"
 preserveAspectRatio="xMidYMid meet">
<metadata>
Created by potrace 1.14, written by Peter Selinger 2001-2017
</metadata>
<g transform="translate(0.000000,1290.000000) scale(0.100000,-0.100000)"
fill="#000000" stroke="none">
<path d="M6148 12895 c-1 -1 -56 -6 -120 -9 -64 -4 -132 -9 -150 -11 -18 -2
-64 -6 -103 -10 -38 -3 -81 -8 -95 -10 -14 -2 -77 -11 -140 -20 -107 -14 -136
-19 -200 -31 -14 -2 -41 -7 -60 -10 -79 -13 -323 -67 -450 -99 -319 -83 -673
-205 -955 -330 -190 -84 -374 -174 -504 -247 -57 -32 -106 -58 -107 -58 -7 0
-322 -195 -404 -250 -143 -96 -476 -345 -510 -380 -3 -3 -52 -46 -110 -95
-334 -287 -661 -633 -918 -975 -48 -63 -89 -117 -92 -120 -9 -9 -142 -202
-165 -238 -5 -9 -28 -44 -50 -77 -22 -33 -42 -64 -45 -70 -3 -5 -37 -64 -76
-130 -125 -209 -254 -459 -341 -660 -19 -44 -41 -94 -48 -110 -161 -358 -356
-1030 -419 -1450 -4 -22 -11 -67 -16 -100 -5 -33 -12 -82 -15 -110 -3 -27 -8
-63 -10 -80 -29 -224 -40 -428 -40 -760 0 -265 7 -466 20 -575 2 -19 6 -62 9
-95 3 -33 8 -76 11 -95 3 -19 7 -56 10 -83 2 -26 7 -62 10 -80 3 -17 7 -45 10
-62 2 -16 7 -41 9 -55 3 -14 7 -41 10 -60 5 -33 43 -233 52 -275 3 -11 7 -30
10 -42 2 -12 20 -84 40 -160 19 -76 37 -147 39 -157 5 -21 4 -18 66 -216 37
-120 149 -428 194 -535 162 -382 355 -741 584 -1084 53 -79 101 -151 106 -160
6 -9 12 -18 15 -21 3 -3 32 -41 64 -85 57 -76 195 -255 206 -265 3 -3 45 -52
95 -110 180 -211 437 -471 645 -650 41 -36 80 -69 87 -75 68 -59 205 -168 277
-220 16 -11 44 -33 64 -48 308 -240 841 -543 1307 -742 17 -7 46 -19 65 -28
99 -42 456 -171 503 -182 12 -2 60 -16 107 -30 218 -67 587 -152 785 -180 22
-3 51 -8 65 -11 14 -2 34 -6 46 -8 11 -2 47 -7 80 -10 65 -7 219 -24 275 -31
168 -20 772 -27 984 -12 155 11 299 24 365 32 19 3 55 7 80 10 25 3 56 7 70
10 29 5 65 11 130 20 25 4 92 16 150 27 58 11 116 22 130 25 61 11 320 76 435
108 147 41 478 151 517 171 15 8 29 14 30 13 2 0 16 4 31 10 16 6 30 11 33 11
2 0 23 9 47 19 23 11 92 41 152 66 260 111 592 287 852 450 296 186 553 378
837 625 163 142 450 430 591 595 33 38 67 76 75 85 8 9 29 33 45 54 17 21 37
46 45 56 109 131 264 343 373 510 85 131 187 298 187 306 0 3 8 18 19 32 70
101 289 547 370 757 18 44 36 89 41 100 30 62 131 359 185 545 70 239 149 593
170 757 4 26 15 98 21 128 4 17 12 88 19 160 1 11 5 45 9 75 23 190 31 359 31
685 0 257 -8 471 -19 560 -2 17 -7 64 -11 105 -7 80 -11 114 -19 170 -3 19 -8
55 -11 80 -9 69 -25 168 -40 245 -8 39 -16 84 -19 102 -34 193 -163 670 -227
838 -10 28 -38 104 -63 170 -112 305 -330 765 -463 972 -18 29 -33 54 -33 57
0 16 -325 505 -350 526 -3 3 -17 21 -30 40 -13 19 -27 37 -30 40 -3 3 -18 23
-35 45 -16 22 -31 42 -34 45 -4 3 -24 28 -46 55 -21 28 -42 52 -45 55 -3 3
-21 25 -41 50 -194 239 -572 611 -843 830 -10 8 -23 20 -30 25 -6 6 -40 33
-76 60 -36 28 -67 52 -70 55 -3 3 -50 38 -105 78 -55 39 -105 76 -112 82 -31
26 -314 206 -448 285 -180 106 -507 271 -700 353 -219 94 -605 233 -710 257
-5 1 -17 5 -25 8 -62 25 -492 126 -650 152 -19 3 -42 8 -50 10 -8 2 -35 7 -60
10 -25 3 -86 13 -137 21 -50 8 -118 17 -150 20 -32 3 -69 7 -83 9 -14 2 -65 7
-115 11 -49 4 -108 9 -130 11 -50 5 -732 12 -737 8z"/>
</g>
</svg>
